<?xml version="1.0" encoding="UTF-8" standalone="no" ?>
<!DOCTYPE svg PUBLIC "-//W3C//DTD SVG 1.1//EN" "http://www.w3.org/Graphics/SVG/1.1/DTD/svg11.dtd">
<svg xmlns="http://www.w3.org/2000/svg" xmlns:xlink="http://www.w3.org/1999/xlink" version="1.1" width="500" height="500" viewBox="75 21 350 350" xml:space="preserve">
<desc>Created with Fabric.js 1.6.3</desc>
<defs></defs>

  <path id="svg_17" stroke="RGB(200,197,196)" stroke-width="25" stroke-miterlimit="10" fill="none" fill-rule="nonzero" transform="rotate(-90 252.50000000000003,197.50000000000003) " d="m292.5,197.5a40,40 0 0 1 -1.62028,11.2693"/>
  <path id="svg_18" stroke="RGB(158,156,155)" stroke-width="25" stroke-miterlimit="10" fill="none" fill-rule="nonzero" transform="rotate(-90 252.50000000000003,197.50000000000003) " d="m290.87972,208.7693a40,40 0 0 1 -4.72958,10.35633"/>
  <path id="svg_20" stroke="RGB(200,197,196)" stroke-width="25" stroke-miterlimit="10" fill="none" fill-rule="nonzero" transform="rotate(-90 252.50000000000003,197.50000000000003) " d="m286.15014,219.12563a40,40 0 0 1 -7.45571,8.60435"/>
  <path id="svg_26" stroke="RGB(158,156,155)" stroke-width="25" stroke-miterlimit="10" fill="none" fill-rule="nonzero" transform="rotate(-90 252.50000000000003,197.50000000000003) " d="m278.69443,227.72998a40,40 0 0 1 -9.57783,6.1553"/>
  <path id="svg_51" stroke="RGB(200,197,196)" stroke-width="25" stroke-miterlimit="10" fill="none" fill-rule="nonzero" transform="rotate(-90 252.50000000000003,197.50000000000003) " d="m269.1166,233.88528a40,40 0 0 1 -10.92401,3.20758"/>
  <path id="svg_53" stroke="RGB(158,156,155)" stroke-width="25" stroke-miterlimit="10" fill="none" fill-rule="nonzero" transform="rotate(-90 252.50000000000003,197.50000000000003) " d="m258.19259,237.09286a40,40 0 0 1 -11.38518,0"/>
  <path id="svg_60" stroke="RGB(200,197,196)" stroke-width="25" stroke-miterlimit="10" fill="none" fill-rule="nonzero" transform="rotate(-90 252.50000000000003,197.50000000000003) " d="m246.80741,237.09286a40,40 0 0 1 -10.92401,-3.20758"/>
  <path id="svg_61" stroke="RGB(158,156,155)" stroke-width="25" stroke-miterlimit="10" fill="none" fill-rule="nonzero" transform="rotate(-90 252.50000000000003,197.50000000000003) " d="m235.8834,233.88528a40,40 0 0 1 -9.57783,-6.1553"/>
  <path id="svg_62" stroke="RGB(200,197,196)" stroke-width="25" stroke-miterlimit="10" fill="none" fill-rule="nonzero" transform="rotate(-90 252.50000000000003,197.50000000000003) " d="m226.30557,227.72998a40,40 0 0 1 -7.45571,-8.60435"/>
  <path id="svg_63" stroke="RGB(158,156,155)" stroke-width="25" stroke-miterlimit="10" fill="none" fill-rule="nonzero" transform="rotate(-90 252.50000000000003,197.50000000000003) " d="m218.84986,219.12563a40,40 0 0 1 -4.72958,-10.35633"/>
  <path id="svg_64" stroke="RGB(200,197,196)" stroke-width="25" stroke-miterlimit="10" fill="none" fill-rule="nonzero" transform="rotate(-90 252.50000000000003,197.50000000000003) " d="m214.12028,208.7693a40,40 0 0 1 -1.62028,-11.2693"/>
  <path id="svg_97" stroke="RGB(158,156,155)" stroke-width="25" stroke-miterlimit="10" fill="none" fill-rule="nonzero" transform="rotate(-90 252.50000000000003,197.50000000000003) " d="m212.5,197.5a40,40 0 0 1 1.62028,-11.2693"/>
  <path id="svg_100" stroke="RGB(200,197,196)" stroke-width="25" stroke-miterlimit="10" fill="none" fill-rule="nonzero" transform="rotate(-90 252.50000000000003,197.50000000000003) " d="m214.12028,186.2307a40,40 0 0 1 4.72958,-10.35633"/>
  <path id="svg_101" stroke="RGB(158,156,155)" stroke-width="25" stroke-miterlimit="10" fill="none" fill-rule="nonzero" transform="rotate(-90 252.50000000000003,197.50000000000003) " d="m218.84986,175.87437a40,40 0 0 1 7.45571,-8.60435"/>
  <path id="svg_102" stroke="RGB(200,197,196)" stroke-width="25" stroke-miterlimit="10" fill="none" fill-rule="nonzero" transform="rotate(-90 252.50000000000003,197.50000000000003) " d="m226.30557,167.27002a40,40 0 0 1 9.57783,-6.1553"/>
  <path id="svg_103" stroke="RGB(158,156,155)" stroke-width="25" stroke-miterlimit="10" fill="none" fill-rule="nonzero" transform="rotate(-90 252.50000000000003,197.50000000000003) " d="m235.8834,161.11472a40,40 0 0 1 10.92401,-3.20758"/>
  <path id="svg_104" stroke="RGB(200,197,196)" stroke-width="25" stroke-miterlimit="10" fill="none" fill-rule="nonzero" transform="rotate(-90 252.50000000000003,197.50000000000003) " d="m246.80741,157.90714a40,40 0 0 1 11.38518,0"/>
  <path id="svg_105" stroke="RGB(158,156,155)" stroke-width="25" stroke-miterlimit="10" fill="none" fill-rule="nonzero" transform="rotate(-90 252.50000000000003,197.50000000000003) " d="m258.19259,157.90714a40,40 0 0 1 10.92401,3.20758"/>
  <path id="svg_106" stroke="RGB(200,197,196)" stroke-width="25" stroke-miterlimit="10" fill="none" fill-rule="nonzero" transform="rotate(-90 252.50000000000003,197.50000000000003) " d="m269.1166,161.11472a40,40 0 0 1 9.57783,6.1553"/>
  <path id="svg_107" stroke="RGB(158,156,155)" stroke-width="25" stroke-miterlimit="10" fill="none" fill-rule="nonzero" transform="rotate(-90 252.50000000000003,197.50000000000003) " d="m278.69443,167.27002a40,40 0 0 1 7.45571,8.60435"/>
  <path id="svg_108" stroke="RGB(200,197,196)" stroke-width="25" stroke-miterlimit="10" fill="none" fill-rule="nonzero" transform="rotate(-90 252.50000000000003,197.50000000000003) " d="m286.15014,175.87437a40,40 0 0 1 4.72958,10.35633"/>
  <path id="svg_109" stroke="RGB(158,156,155)" stroke-width="25" stroke-miterlimit="10" fill="none" fill-rule="nonzero" transform="rotate(-90 252.50000000000003,197.50000000000003) " d="m290.87972,186.2307a40,40 0 0 1 1.62028,11.2693"/>
  <path id="svg_110" stroke="RGB(255,167,149)" stroke-width="25" stroke-miterlimit="10" fill="none" fill-rule="nonzero" transform="rotate(-90 252.50000000000003,197.50000000000003) " d="m322.5,197.5a70,70 0 0 1 -0.68124,9.74212"/>
  <path id="svg_111" stroke="RGB(252,192,180)" stroke-width="25" stroke-miterlimit="10" fill="none" fill-rule="nonzero" transform="rotate(-90 252.50000000000003,197.50000000000003) " d="m321.81876,207.24212a70,70 0 0 1 -2.03044,9.55249"/>
  <path id="svg_112" stroke="RGB(254,208,200)" stroke-width="25" stroke-miterlimit="10" fill="none" fill-rule="nonzero" transform="rotate(-90 252.50000000000003,197.50000000000003) " d="m319.78832,216.79461a70,70 0 0 1 -3.34014,9.17696"/>
  <path id="svg_113" stroke="RGB(255,167,149)" stroke-width="25" stroke-miterlimit="10" fill="none" fill-rule="nonzero" transform="rotate(-90 252.50000000000003,197.50000000000003) " d="m316.44818,225.97157a70,70 0 0 1 -4.58481,8.62278"/>
  <path id="svg_114" stroke="RGB(252,192,180)" stroke-width="25" stroke-miterlimit="10" fill="none" fill-rule="nonzero" transform="rotate(-90 252.50000000000003,197.50000000000003) " d="m311.86337,234.59435a70,70 0 0 1 -5.74026,7.90078"/>
  <path id="svg_115" stroke="RGB(254,208,200)" stroke-width="25" stroke-miterlimit="10" fill="none" fill-rule="nonzero" transform="rotate(-90 252.50000000000003,197.50000000000003) " d="m306.12311,242.49513a70,70 0 0 1 -6.78397,7.02501"/>
  <path id="svg_116" stroke="RGB(255,167,149)" stroke-width="25" stroke-miterlimit="10" fill="none" fill-rule="nonzero" transform="rotate(-90 252.50000000000003,197.50000000000003) " d="m299.33914,249.52014a70,70 0 0 1 -7.69564,6.01249"/>
  <path id="svg_117" stroke="RGB(252,192,180)" stroke-width="25" stroke-miterlimit="10" fill="none" fill-rule="nonzero" transform="rotate(-90 252.50000000000003,197.50000000000003) " d="m291.6435,255.53263a70,70 0 0 1 -8.45752,4.88295"/>
  <path id="svg_118" stroke="RGB(254,208,200)" stroke-width="25" stroke-miterlimit="10" fill="none" fill-rule="nonzero" transform="rotate(-90 252.50000000000003,197.50000000000003) " d="m283.18598,260.41558a70,70 0 0 1 -9.05479,3.65838"/>
  <path id="svg_119" stroke="RGB(255,167,149)" stroke-width="25" stroke-miterlimit="10" fill="none" fill-rule="nonzero" transform="rotate(-90 252.50000000000003,197.50000000000003) " d="m274.13119,264.07396a70,70 0 0 1 -9.47582,2.36258"/>
  <path id="svg_120" stroke="RGB(252,192,180)" stroke-width="25" stroke-miterlimit="10" fill="none" fill-rule="nonzero" transform="rotate(-90 252.50000000000003,197.50000000000003) " d="m264.65537,266.43654a70,70 0 0 1 -9.71241,1.02082"/>
  <path id="svg_121" stroke="RGB(254,208,200)" stroke-width="25" stroke-miterlimit="10" fill="none" fill-rule="nonzero" transform="rotate(-90 252.50000000000003,197.50000000000003) " d="m254.94296,267.45736a70,70 0 0 1 -9.75995,-0.34083"/>
  <path id="svg_122" stroke="RGB(255,167,149)" stroke-width="25" stroke-miterlimit="10" fill="none" fill-rule="nonzero" transform="rotate(-90 252.50000000000003,197.50000000000003) " d="m245.18301,267.11653a70,70 0 0 1 -9.61754,-1.69583"/>
  <path id="svg_123" stroke="RGB(252,192,180)" stroke-width="25" stroke-miterlimit="10" fill="none" fill-rule="nonzero" transform="rotate(-90 252.50000000000003,197.50000000000003) " d="m235.56547,265.4207a70,70 0 0 1 -9.28793,-3.01783"/>
  <path id="svg_124" stroke="RGB(254,208,200)" stroke-width="25" stroke-miterlimit="10" fill="none" fill-rule="nonzero" transform="rotate(-90 252.50000000000003,197.50000000000003) " d="m226.27754,262.40287a70,70 0 0 1 -8.77754,-4.28109"/>
  <path id="svg_125" stroke="RGB(255,167,149)" stroke-width="25" stroke-miterlimit="10" fill="none" fill-rule="nonzero" transform="rotate(-90 252.50000000000003,197.50000000000003) " d="m217.5,258.12178a70,70 0 0 1 -8.0963,-5.46103"/>
  <path id="svg_126" stroke="RGB(252,192,180)" stroke-width="25" stroke-miterlimit="10" fill="none" fill-rule="nonzero" transform="rotate(-90 252.50000000000003,197.50000000000003) " d="m209.4037,252.66075a70,70 0 0 1 -7.25749,-6.53466"/>
  <path id="svg_127" stroke="RGB(254,208,200)" stroke-width="25" stroke-miterlimit="10" fill="none" fill-rule="nonzero" transform="rotate(-90 252.50000000000003,197.50000000000003) " d="m202.14621,246.12609a70,70 0 0 1 -6.2774,-7.48112"/>
  <path id="svg_128" stroke="RGB(255,167,149)" stroke-width="25" stroke-miterlimit="10" fill="none" fill-rule="nonzero" transform="rotate(-90 252.50000000000003,197.50000000000003) " d="m195.86881,238.64497a70,70 0 0 1 -5.17514,-8.28196"/>
  <path id="svg_129" stroke="RGB(252,192,180)" stroke-width="25" stroke-miterlimit="10" fill="none" fill-rule="nonzero" transform="rotate(-90 252.50000000000003,197.50000000000003) " d="m190.69367,230.36301a70,70 0 0 1 -3.97215,-8.9216"/>
  <path id="svg_130" stroke="RGB(254,208,200)" stroke-width="25" stroke-miterlimit="10" fill="none" fill-rule="nonzero" transform="rotate(-90 252.50000000000003,197.50000000000003) " d="m186.72152,221.44141a70,70 0 0 1 -2.69185,-9.38759"/>
  <path id="svg_131" stroke="RGB(255,167,149)" stroke-width="25" stroke-miterlimit="10" fill="none" fill-rule="nonzero" transform="rotate(-90 252.50000000000003,197.50000000000003) " d="m184.02967,212.05382a70,70 0 0 1 -1.35915,-9.67087"/>
  <path id="svg_132" stroke="RGB(252,192,180)" stroke-width="25" stroke-miterlimit="10" fill="none" fill-rule="nonzero" transform="rotate(-90 252.50000000000003,197.50000000000003) " d="m182.67052,202.38295a70,70 0 0 1 0,-9.7659"/>
  <path id="svg_133" stroke="RGB(254,208,200)" stroke-width="25" stroke-miterlimit="10" fill="none" fill-rule="nonzero" transform="rotate(-90 252.50000000000003,197.50000000000003) " d="m182.67052,192.61705a70,70 0 0 1 1.35915,-9.67087"/>
  <path id="svg_134" stroke="RGB(255,167,149)" stroke-width="25" stroke-miterlimit="10" fill="none" fill-rule="nonzero" transform="rotate(-90 252.50000000000003,197.50000000000003) " d="m184.02967,182.94618a70,70 0 0 1 2.69185,-9.38759"/>
  <path id="svg_135" stroke="RGB(252,192,180)" stroke-width="25" stroke-miterlimit="10" fill="none" fill-rule="nonzero" transform="rotate(-90 252.50000000000003,197.50000000000003) " d="m186.72152,173.55859a70,70 0 0 1 3.97215,-8.9216"/>
  <path id="svg_136" stroke="RGB(254,208,200)" stroke-width="25" stroke-miterlimit="10" fill="none" fill-rule="nonzero" transform="rotate(-90 252.50000000000003,197.50000000000003) " d="m190.69367,164.63699a70,70 0 0 1 5.17514,-8.28196"/>
  <path id="svg_137" stroke="RGB(255,167,149)" stroke-width="25" stroke-miterlimit="10" fill="none" fill-rule="nonzero" transform="rotate(-90 252.50000000000003,197.50000000000003) " d="m195.86881,156.35503a70,70 0 0 1 6.2774,-7.48112"/>
  <path id="svg_138" stroke="RGB(252,192,180)" stroke-width="25" stroke-miterlimit="10" fill="none" fill-rule="nonzero" transform="rotate(-90 252.50000000000003,197.50000000000003) " d="m202.14621,148.87391a70,70 0 0 1 7.25749,-6.53466"/>
  <path id="svg_139" stroke="RGB(254,208,200)" stroke-width="25" stroke-miterlimit="10" fill="none" fill-rule="nonzero" transform="rotate(-90 252.50000000000003,197.50000000000003) " d="m209.4037,142.33925a70,70 0 0 1 8.0963,-5.46103"/>
  <path id="svg_140" stroke="RGB(255,167,149)" stroke-width="25" stroke-miterlimit="10" fill="none" fill-rule="nonzero" transform="rotate(-90 252.50000000000003,197.50000000000003) " d="m217.5,136.87822a70,70 0 0 1 8.77754,-4.28109"/>
  <path id="svg_141" stroke="RGB(252,192,180)" stroke-width="25" stroke-miterlimit="10" fill="none" fill-rule="nonzero" transform="rotate(-90 252.50000000000003,197.50000000000003) " d="m226.27754,132.59713a70,70 0 0 1 9.28793,-3.01783"/>
  <path id="svg_142" stroke="RGB(254,208,200)" stroke-width="25" stroke-miterlimit="10" fill="none" fill-rule="nonzero" transform="rotate(-90 252.50000000000003,197.50000000000003) " d="m235.56547,129.5793a70,70 0 0 1 9.61754,-1.69583"/>
  <path id="svg_143" stroke="RGB(255,167,149)" stroke-width="25" stroke-miterlimit="10" fill="none" fill-rule="nonzero" transform="rotate(-90 252.50000000000003,197.50000000000003) " d="m245.18301,127.88347a70,70 0 0 1 9.75995,-0.34083"/>
  <path id="svg_144" stroke="RGB(252,192,180)" stroke-width="25" stroke-miterlimit="10" fill="none" fill-rule="nonzero" transform="rotate(-90 252.50000000000003,197.50000000000003) " d="m254.94296,127.54264a70,70 0 0 1 9.71241,1.02082"/>
  <path id="svg_145" stroke="RGB(254,208,200)" stroke-width="25" stroke-miterlimit="10" fill="none" fill-rule="nonzero" transform="rotate(-90 252.50000000000003,197.50000000000003) " d="m264.65537,128.56346a70,70 0 0 1 9.47582,2.36258"/>
  <path id="svg_146" stroke="RGB(255,167,149)" stroke-width="25" stroke-miterlimit="10" fill="none" fill-rule="nonzero" transform="rotate(-90 252.50000000000003,197.50000000000003) " d="m274.13119,130.92604a70,70 0 0 1 9.05479,3.65838"/>
  <path id="svg_147" stroke="RGB(252,192,180)" stroke-width="25" stroke-miterlimit="10" fill="none" fill-rule="nonzero" transform="rotate(-90 252.50000000000003,197.50000000000003) " d="m283.18598,134.58442a70,70 0 0 1 8.45752,4.88295"/>
  <path id="svg_148" stroke="RGB(254,208,200)" stroke-width="25" stroke-miterlimit="10" fill="none" fill-rule="nonzero" transform="rotate(-90 252.50000000000003,197.50000000000003) " d="m291.6435,139.46737a70,70 0 0 1 7.69564,6.01249"/>
  <path id="svg_149" stroke="RGB(255,167,149)" stroke-width="25" stroke-miterlimit="10" fill="none" fill-rule="nonzero" transform="rotate(-90 252.50000000000003,197.50000000000003) " d="m299.33914,145.47986a70,70 0 0 1 6.78397,7.02501"/>
  <path id="svg_150" stroke="RGB(252,192,180)" stroke-width="25" stroke-miterlimit="10" fill="none" fill-rule="nonzero" transform="rotate(-90 252.50000000000003,197.50000000000003) " d="m306.12311,152.50487a70,70 0 0 1 5.74026,7.90078"/>
  <path id="svg_151" stroke="RGB(254,208,200)" stroke-width="25" stroke-miterlimit="10" fill="none" fill-rule="nonzero" transform="rotate(-90 252.50000000000003,197.50000000000003) " d="m311.86337,160.40565a70,70 0 0 1 4.58481,8.62278"/>
  <path id="svg_152" stroke="RGB(255,167,149)" stroke-width="25" stroke-miterlimit="10" fill="none" fill-rule="nonzero" transform="rotate(-90 252.50000000000003,197.50000000000003) " d="m316.44818,169.02843a70,70 0 0 1 3.34014,9.17696"/>
  <path id="svg_153" stroke="RGB(252,192,180)" stroke-width="25" stroke-miterlimit="10" fill="none" fill-rule="nonzero" transform="rotate(-90 252.50000000000003,197.50000000000003) " d="m319.78832,178.20539a70,70 0 0 1 2.03044,9.55249"/>
  <path id="svg_154" stroke="RGB(254,208,200)" stroke-width="25" stroke-miterlimit="10" fill="none" fill-rule="nonzero" transform="rotate(-90 252.50000000000003,197.50000000000003) " d="m321.81876,187.75788a70,70 0 0 1 0.68124,9.74212"/>
  <path id="svg_155" stroke="RGB(211,235,211)" stroke-width="25" stroke-miterlimit="10" fill="none" fill-rule="nonzero" transform="rotate(-90 252.50000000000003,197.50000000000003) " d="m352.5,197.5a100,100 0 0 1 -50,86.60254"/>
  <path id="svg_156" stroke="RGB(168,216,167)" stroke-width="25" stroke-miterlimit="10" fill="none" fill-rule="nonzero" transform="rotate(-90 252.50000000000003,197.50000000000003) " d="m302.5,284.10254a100,100 0 0 1 -100,0"/>
  <path id="svg_157" stroke="RGB(211,235,211)" stroke-width="25" stroke-miterlimit="10" fill="none" fill-rule="nonzero" transform="rotate(-90 252.50000000000003,197.50000000000003) " d="m202.5,284.10254a100,100 0 0 1 -50,-86.60254"/>
  <path id="svg_158" stroke="RGB(168,216,167)" stroke-width="25" stroke-miterlimit="10" fill="none" fill-rule="nonzero" transform="rotate(-90 252.50000000000003,197.50000000000003) " d="m152.5,197.5a100,100 0 0 1 50,-86.60254"/>
  <path id="svg_159" stroke="RGB(211,235,211)" stroke-width="25" stroke-miterlimit="10" fill="none" fill-rule="nonzero" transform="rotate(-90 252.50000000000003,197.50000000000003) " d="m202.5,110.89746a100,100 0 0 1 100,0"/>
  <path id="svg_160" stroke="RGB(168,216,167)" stroke-width="25" stroke-miterlimit="10" fill="none" fill-rule="nonzero" transform="rotate(-90 252.50000000000003,197.50000000000003) " d="m302.5,110.89746a100,100 0 0 1 50,86.60254"/>
  <path id="svg_161" stroke="RGB(239,143,182)" stroke-width="25" stroke-miterlimit="10" fill="none" fill-rule="nonzero" transform="rotate(-90 252.50000000000003,197.50000000000003) " d="m382.5,197.5a130,130 0 0 1 -38.07612,91.92388"/>
  <path id="svg_162" stroke="RGB(230,109,159)" stroke-width="25" stroke-miterlimit="10" fill="none" fill-rule="nonzero" transform="rotate(-90 252.50000000000003,197.50000000000003) " d="m344.42388,289.42388a130,130 0 0 1 -91.92388,38.07612"/>
  <path id="svg_163" stroke="RGB(239,143,182)" stroke-width="25" stroke-miterlimit="10" fill="none" fill-rule="nonzero" transform="rotate(-90 252.50000000000003,197.50000000000003) " d="m252.5,327.5a130,130 0 0 1 -91.92388,-38.07612"/>
  <path id="svg_164" stroke="RGB(230,109,159)" stroke-width="25" stroke-miterlimit="10" fill="none" fill-rule="nonzero" transform="rotate(-90 252.50000000000003,197.50000000000003) " d="m160.57612,289.42388a130,130 0 0 1 -38.07612,-91.92388"/>
  <path id="svg_165" stroke="RGB(239,143,182)" stroke-width="25" stroke-miterlimit="10" fill="none" fill-rule="nonzero" transform="rotate(-90 252.50000000000003,197.50000000000003) " d="m122.5,197.5a130,130 0 0 1 38.07612,-91.92388"/>
  <path id="svg_166" stroke="RGB(230,109,159)" stroke-width="25" stroke-miterlimit="10" fill="none" fill-rule="nonzero" transform="rotate(-90 252.50000000000003,197.50000000000003) " d="m160.57612,105.57612a130,130 0 0 1 91.92388,-38.07612"/>
  <path id="svg_167" stroke="RGB(239,143,182)" stroke-width="25" stroke-miterlimit="10" fill="none" fill-rule="nonzero" transform="rotate(-90 252.50000000000003,197.50000000000003) " d="m252.5,67.5a130,130 0 0 1 91.92388,38.07612"/>
  <path id="svg_168" stroke="RGB(230,109,159)" stroke-width="25" stroke-miterlimit="10" fill="none" fill-rule="nonzero" transform="rotate(-90 252.50000000000003,197.50000000000003) " d="m344.42388,105.57612a130,130 0 0 1 38.07612,91.92388"/>
  <path id="svg_169" stroke="RGB(214,196,118)" stroke-width="25" stroke-miterlimit="10" fill="none" fill-rule="nonzero" transform="rotate(-90 252.50000000000003,197.50000000000003) " d="m412.5,197.5a160,160 0 0 1 -160,160"/>
  <path id="svg_170" stroke="RGB(206,184,76)" stroke-width="25" stroke-miterlimit="10" fill="none" fill-rule="nonzero" transform="rotate(-90 252.50000000000003,197.50000000000003) " d="m252.5,357.5a160,160 0 0 1 -160,-160"/>
  <path id="svg_171" stroke="RGB(214,196,118)" stroke-width="25" stroke-miterlimit="10" fill="none" fill-rule="nonzero" transform="rotate(-90 252.50000000000003,197.50000000000003) " d="m92.5,197.5a160,160 0 0 1 160,-160"/>
  <path id="svg_172" stroke="RGB(206,184,76)" stroke-width="25" stroke-miterlimit="10" fill="none" fill-rule="nonzero" transform="rotate(-90 252.50000000000003,197.50000000000003) " d="m252.5,37.5a160,160 0 0 1 160,160"/>
  <text id="svg_81" stroke="#000000" transform="rotate(148.94622802734375 306.49456787109375,281.5859375) matrix(0.6872963905334469,0,0,0.5818181633949279,305.76919949799776,-2.8181846439838267) " xml:space="preserve" text-anchor="middle" font-family="Monospace" font-size="24" y="496.95308" x="1.07111" stroke-linecap="null" stroke-linejoin="null" stroke-dasharray="null" stroke-width="0" fill="#000000">3</text>
  <path stroke="RGB(168,216,167)" stroke-width="25" stroke-miterlimit="10" fill="none" fill-rule="nonzero" id="path144" transform="rotate(-90 252.50000000000003,197.50000000000003) " d="m302.5,284.10254a100,100 0 0 1 -100,0"/>
  <path stroke="RGB(168,216,167)" stroke-width="25" stroke-miterlimit="10" fill="none" fill-rule="nonzero" id="path148" transform="rotate(-90 252.50000000000003,197.50000000000003) " d="m152.5,197.5a100,100 0 0 1 50,-86.60254"/>
  <path stroke="RGB(211,235,211)" stroke-width="25" stroke-miterlimit="10" fill="none" fill-rule="nonzero" id="path150"  transform="rotate(-90 252.50000000000003,197.50000000000003) " d="m202.5,110.89746a100,100 0 0 1 100,0"/>
  <path stroke="RGB(168,216,167)" stroke-width="25" stroke-miterlimit="10" fill="none" fill-rule="nonzero" id="path152" transform="rotate(-90 252.50000000000003,197.50000000000003) " d="m302.5,110.89746a100,100 0 0 1 50,86.60254"/>
  <path stroke="RGB(239,143,182)" stroke-width="25" stroke-miterlimit="10" fill="none" fill-rule="nonzero" id="path154" transform="rotate(-90 252.50000000000003,197.50000000000003) " d="m382.5,197.5a130,130 0 0 1 -38.07612,91.92388"/>
  <path stroke="RGB(230,109,159)" stroke-width="25" stroke-miterlimit="10" fill="none" fill-rule="nonzero" id="path156" transform="rotate(-90 252.50000000000003,197.50000000000003) " d="m344.42388,289.42388a130,130 0 0 1 -91.92388,38.07612"/>
  <text id="svg_82" stroke="#000000" transform="rotate(-146.31195068359375 198.0403289794922,280.6888427734375) matrix(0.6872963905334469,0,0,0.5818181633949279,305.76919949799776,-2.8181846439838267) " xml:space="preserve" text-anchor="middle" font-family="Monospace" font-size="24" y="495.26968" x="-156.8287" stroke-linecap="null" stroke-linejoin="null" stroke-dasharray="null" stroke-width="0" fill="#000000">4</text>
  <path stroke="RGB(239,143,182)" stroke-width="25" stroke-miterlimit="10" fill="none" fill-rule="nonzero" id="path158" transform="rotate(-90 252.50000000000003,197.50000000000003) " d="m252.5,327.5a130,130 0 0 1 -91.92388,-38.07612"/>
  <path stroke="RGB(230,109,159)" stroke-width="25" stroke-miterlimit="10" fill="none" fill-rule="nonzero" id="path160" transform="rotate(-90 252.50000000000003,197.50000000000003) " d="m160.57612,289.42388a130,130 0 0 1 -38.07612,-91.92388"/>
  <text id="svg_91" stroke="#000000" transform="rotate(-65.2988052368164 132.5874176025391,145.7898864746094) matrix(0.6872963905334469,0,0,0.5818181633949279,305.76919949799776,-2.8181846439838267) " xml:space="preserve" text-anchor="middle" font-family="Monospace" font-size="24" y="263.21835" x="-252.1086" stroke-linecap="null" stroke-linejoin="null" stroke-dasharray="null" stroke-width="0" fill="#000000">7</text>
  <text id="svg_92" stroke="#000000" transform="rotate(-65.2988052368164 134.58106994628903,142.7884674072266) matrix(0.6872963905334469,0,0,0.5818181633949279,305.76919949799776,-2.8181846439838267) " xml:space="preserve" text-anchor="middle" font-family="Monospace" font-size="24" y="258.06208" x="-249.19964" stroke-linecap="null" stroke-linejoin="null" stroke-dasharray="null" stroke-width="0" fill="#000000">7</text>
  <path stroke="RGB(239,143,182)" stroke-width="25" stroke-miterlimit="10" fill="none" fill-rule="nonzero" id="path162" transform="rotate(-90 252.50000000000003,197.50000000000003) " d="m122.5,197.5a130,130 0 0 1 38.07612,-91.92388"/>
  <text id="svg_84" stroke="#000000" transform="rotate(-28.767982482910156 200.54603576660153,111.83366394042969) matrix(0.6872963905334469,0,0,0.5818181633949279,305.76919949799776,-2.8181846439838267) " xml:space="preserve" text-anchor="middle" font-family="Monospace" font-size="24" y="204.76969" x="-153.1727" stroke-linecap="null" stroke-linejoin="null" stroke-dasharray="null" stroke-width="0" fill="#000000">6</text>
  <path stroke="RGB(230,109,159)" stroke-width="25" stroke-miterlimit="10" fill="none" fill-rule="nonzero" id="path164" transform="rotate(-90 252.50000000000003,197.50000000000003) " d="m160.57612,105.57612a130,130 0 0 1 91.92388,-38.07612"/>
  <text stroke="#000000" transform="rotate(34.76252365112305 304.1877746582031,112.51932525634767) matrix(0.6872963905334472,0,0,0.581818163394928,257.5114022567868,-86.62726667523384) " xml:space="preserve" text-anchor="middle" font-family="Monospace" font-size="24" id="svg_79" y="350" x="68" stroke-linecap="null" stroke-linejoin="null" stroke-dasharray="null" stroke-width="0" fill="#000000">1</text>
  <path stroke="RGB(239,143,182)" stroke-width="25" stroke-miterlimit="10" fill="none" fill-rule="nonzero" id="path166" transform="rotate(-90 252.50000000000003,197.50000000000003) " d="m252.5,67.5a130,130 0 0 1 91.92388,38.07612"/>
  <path stroke="RGB(230,109,159)" stroke-width="25" stroke-miterlimit="10" fill="none" fill-rule="nonzero" id="path168" transform="rotate(-90 252.50000000000003,197.50000000000003) " d="m344.42388,105.57612a130,130 0 0 1 38.07612,91.92388"/>
  <text id="svg_2" stroke="#000000" transform="rotate(-64.35267639160156 269.1958312988281,160.1190490722656) matrix(0.25039108496739,0,0,0.285608945946354,241.52383193564336,63.41588482952602) " font-weight="bold" xml:space="preserve" text-anchor="middle" font-family="Monospace" font-size="24" y="346.71109" x="109.95688" stroke-width="0" fill="#000000">1.2</text>
  <text id="svg_3" stroke="#000000" transform="rotate(-48.28858947753906 278.5153503417969,166.70980834960938) matrix(0.24362543392111816,0,0,0.2769509542395048,242.0364325615379,66.78333462709274) " font-weight="bold" xml:space="preserve" text-anchor="middle" font-family="Monospace" font-size="24" y="368.42352" x="149.681" stroke-width="0" fill="#000000">1.3</text>
  <text id="svg_4" stroke="#000000" transform="rotate(-31.157062530517578 286.58248901367176,175.38739013671875) matrix(0.25039108496739,0,0,0.285608945946354,241.52383193564336,63.41588482952602) " font-weight="bold" xml:space="preserve" text-anchor="middle" font-family="Monospace" font-size="24" y="399.94625" x="179.63938" stroke-width="0" fill="#000000">1.4</text>
  <text id="svg_5" stroke="#000000" transform="rotate(-15.348687171936035 291.0415039062501,185.90544128417983) matrix(0.25039108496739,0,0,0.285608945946354,241.52383193564336,63.41588482952602) " font-weight="bold" xml:space="preserve" text-anchor="middle" font-family="Monospace" font-size="24" y="436.7098" x="197.61127" stroke-width="0" fill="#000000">1.5</text>
  <text id="svg_7" stroke="#000000" transform="rotate(14.708600997924805 290.9593811035155,208.90190124511724) matrix(0.25039108496739,0,0,0.285608945946354,241.52383193564336,63.41588482952602) " font-weight="bold" xml:space="preserve" text-anchor="middle" font-family="Monospace" font-size="24" y="517.23078" x="197.60365" stroke-width="0" fill="#000000">2.1</text>
  <text id="svg_9" stroke="#000000" transform="rotate(53.575111389160156 279.3697509765624,227.84445190429685) matrix(0.25039108496739,0,0,0.285608945946354,241.52383193564336,63.41588482952602) " font-weight="bold" xml:space="preserve" text-anchor="middle" font-family="Monospace" font-size="24" y="583.76001" x="151.67696" stroke-width="0" fill="#000000">2.3</text>
  <text id="svg_10" stroke="#000000" transform="rotate(71.30789947509766 269.84765625,233.8035583496094) matrix(0.25039108496739,0,0,0.285608945946354,241.52383193564336,63.41588482952602) " font-weight="bold" xml:space="preserve" text-anchor="middle" font-family="Monospace" font-size="24" y="604.76776" x="113.73631" stroke-width="0" fill="#000000">2.4</text>
  <text id="svg_12" stroke="#000000" transform="rotate(96.0999755859375 247.3387756347656,236.72921752929688) matrix(0.25039108496739,0,0,0.285608945946354,241.52383193564336,63.41588482952602) " font-weight="bold" xml:space="preserve" text-anchor="middle" font-family="Monospace" font-size="24" y="615.27163" x="23.87688" stroke-width="0" fill="#000000">4.1</text>
  <text id="svg_16" stroke="#000000" transform="rotate(157.92507934570312 214.94473266601565,209.1013946533203) matrix(0.25039108496739,0,0,0.285608945946354,241.52383193564336,63.41588482952602) " font-weight="bold" xml:space="preserve" text-anchor="middle" font-family="Monospace" font-size="24" y="518.9763" x="-105.91593" stroke-width="0" fill="#000000">4.5</text>
  <text fill="#000000" stroke-width="0" x="478.75062" y="1134.71845" font-size="24" font-family="Monospace" text-anchor="middle" xml:space="preserve" font-weight="bold" transform="rotate(-86.42338562011719 256.50234985351557,128.05078124999997) matrix(0.20654958276332938,0,0,0.22286715939472684,157.6184409683106,-123.02461646297466) " stroke="#000000" id="svg_27">1.2.1</text>
  <text id="svg_28" stroke="#000000" transform="rotate(-80.44891357421875 266.4035339355469,129.25222778320312) matrix(0.20654958276332938,0,0,0.22286715939472684,157.6184409683106,-123.02461646297466) " font-weight="bold" xml:space="preserve" text-anchor="middle" font-family="Monospace" font-size="24" y="1140.09631" x="526.68835" stroke-width="0" fill="#000000">1.2.2</text>
  <text id="svg_30" stroke="#000000" transform="rotate(-63.43049240112305 285.0002136230469,135.25466918945312) matrix(0.20654958276332938,0,0,0.22286715939472684,157.6184409683106,-123.02461646297466) " font-weight="bold" xml:space="preserve" text-anchor="middle" font-family="Monospace" font-size="24" y="1167.01626" x="616.71362" stroke-width="0" fill="#000000">1.2.4</text>
  <text id="svg_39" stroke="#000000" transform="rotate(17.862794876098633 319.31134033203153,218.74525451660153) matrix(0.20654958276332938,0,0,0.22286715939472684,157.6184409683106,-123.02461646297466) " font-weight="bold" xml:space="preserve" text-anchor="middle" font-family="Monospace" font-size="24" y="1541.66562" x="782.84401" stroke-width="0" fill="#000000">1.7.2</text>
  <text id="svg_45" stroke="#000000" transform="rotate(69.9244613647461 281.00061035156244,261.2490844726563) matrix(0.20654958276332938,0,0,0.22286715939472684,157.6184409683106,-123.02461646297466) " font-weight="bold" xml:space="preserve" text-anchor="middle" font-family="Monospace" font-size="24" y="1732.38118" x="597.35424" stroke-width="0" fill="#000000">1.7.8</text>
  <text id="svg_46" stroke="#000000" transform="rotate(77.35990905761719 271.9997863769531,265.25018310546875) matrix(0.20654958276332938,0,0,0.22286715939472684,157.6184409683106,-123.02461646297466) " font-weight="bold" xml:space="preserve" text-anchor="middle" font-family="Monospace" font-size="24" y="1750.32882" x="553.78382" stroke-width="0" fill="#000000">1.7.9</text>
  <text id="svg_47" stroke="#000000" transform="rotate(82.23230743408203 262.5003662109375,267.24835205078125) matrix(0.20654958276332938,0,0,0.22286715939472684,157.6184409683106,-123.02461646297466) " font-weight="bold" xml:space="preserve" text-anchor="middle" font-family="Monospace" font-size="24" y="1759.30277" x="507.79002" stroke-width="0" fill="#000000">1.7.10</text>
  <text id="svg_48" stroke="#000000" transform="rotate(89.11512756347656 252.9992065429688,267.2487487792969) matrix(0.20654958276332938,0,0,0.22286715939472684,157.6184409683106,-123.02461646297466) " font-weight="bold" xml:space="preserve" text-anchor="middle" font-family="Monospace" font-size="24" y="1759.29593" x="461.8011" stroke-width="0" fill="#000000">1.7.11</text>
  <text id="svg_49" stroke="#000000" transform="rotate(97.28948974609375 243.00299072265622,266.75051879882807) matrix(0.20654958276332938,0,0,0.22286715939472684,157.6184409683106,-123.02461646297466) " font-weight="bold" xml:space="preserve" text-anchor="middle" font-family="Monospace" font-size="24" y="1757.0547" x="413.38665" stroke-width="0" fill="#000000">1.7.12</text>
  <text id="svg_54" stroke="#000000" transform="rotate(128.81631469726562 207.8119964599609,252.08270263671875) matrix(0.20654958276332938,0,0,0.22286715939472684,157.6184409683106,-123.02461646297466) " font-weight="bold" xml:space="preserve" text-anchor="middle" font-family="Monospace" font-size="24" y="1689.74835" x="241.50729" stroke-width="0" fill="#000000">5.1.2</text>
  <text id="svg_55" stroke="#000000" transform="rotate(140.77969360351562 200.80841064453128,244.87722778320312) matrix(0.20654958276332938,0,0,0.22286715939472684,157.6184409683106,-123.02461646297466) " font-weight="bold" xml:space="preserve" text-anchor="middle" font-family="Monospace" font-size="24" y="1658.34827" x="210.04339" stroke-width="0" fill="#000000">5.1.3</text>
  <text id="svg_75" stroke="#000000" transform="rotate(-92.21399688720703 246.87313842773438,127.635627746582) matrix(0.20654958276332938,0,0,0.22286715939472684,157.6184409683106,-123.02461646297466) " font-weight="bold" xml:space="preserve" text-anchor="middle" font-family="Monospace" font-size="24" y="1132.86536" x="432.12907" stroke-width="0" fill="#000000">5.4.4</text>
  <text id="svg_76" stroke="#000000" transform="rotate(-99.81077575683594 237.99868774414062,129.25361633300784) matrix(0.20654958276332938,0,0,0.22286715939472684,157.6184409683106,-123.02461646297466) " font-weight="bold" xml:space="preserve" text-anchor="middle" font-family="Monospace" font-size="24" y="1140.10206" x="389.17484" stroke-width="0" fill="#000000">5.4.3</text>
  <text id="svg_77" stroke="#000000" transform="rotate(-107.18462371826172 228.4990692138672,131.75799560546875) matrix(0.20654958276332938,0,0,0.22286715939472684,157.6184409683106,-123.02461646297466) " font-weight="bold" xml:space="preserve" text-anchor="middle" font-family="Monospace" font-size="24" y="1151.31951" x="343.18104" stroke-width="0" fill="#000000">5.4.2</text>
  <text id="svg_80" stroke="#000000" transform="rotate(92.52611541748047 352.4046936035156,196.2458038330078) matrix(0.6872963905334469,0,0,0.5818181633949279,305.76919949799776,-2.8181846439838267) " xml:space="preserve" text-anchor="middle" font-family="Monospace" font-size="24" y="350" x="68" stroke-linecap="null" stroke-linejoin="null" stroke-dasharray="null" stroke-width="0" fill="#000000">2</text>
  <text id="svg_88" stroke="#000000" transform="rotate(156.88169860839844 303.9667053222656,317.1570129394531) matrix(0.6872963905334469,0,0,0.5818181633949279,305.76919949799776,-2.8181846439838267) " xml:space="preserve" text-anchor="middle" font-family="Monospace" font-size="24" y="557.97264" x="-2.58287" stroke-linecap="null" stroke-linejoin="null" stroke-dasharray="null" stroke-width="0" fill="#000000">4</text>
  <path stroke="RGB(214,196,118)" stroke-width="25" stroke-miterlimit="10" fill="none" fill-rule="nonzero" id="path170" transform="rotate(-90 252.50000000000003,197.50000000000003) " d="m412.5,197.5a160,160 0 0 1 -160,160"/>
  <path stroke="RGB(206,184,76)" stroke-width="25" stroke-miterlimit="10" fill="none" fill-rule="nonzero" id="path172" transform="rotate(-90 252.50000000000003,197.50000000000003) " d="m252.5,357.5a160,160 0 0 1 -160,-160"/>
  <text id="svg_50" stroke="#000000" transform="rotate(106.53558349609375 233.50323486328116,265.24688720703125) matrix(0.20654958276332938,0,0,0.22286715939472684,157.6184409683106,-123.02461646297466) " font-weight="bold" xml:space="preserve" text-anchor="middle" font-family="Monospace" font-size="24" y="1750.32389" x="367.38258" stroke-width="0" fill="#000000">1.7.13</text>
  <text id="svg_67" stroke="#000000" transform="rotate(-171.89218139648438 183.67233276367188,190.7377166748047) matrix(0.20654958276332938,0,0,0.22286715939472684,157.6184409683106,-123.02461646297466) " font-weight="bold" xml:space="preserve" text-anchor="middle" font-family="Monospace" font-size="24" y="1415.49077" x="123.11817" stroke-width="0" fill="#000000">5.2.4</text>
  <text id="svg_83" stroke="#000000" transform="rotate(-90.75384521484375 153.0970611572266,197.75946044921878) matrix(0.6872963905334469,0,0,0.5818181633949279,305.76919949799776,-2.8181846439838267) " xml:space="preserve" text-anchor="middle" font-family="Monospace" font-size="24" y="352.58219" x="-222.28408" stroke-linecap="null" stroke-linejoin="null" stroke-dasharray="null" stroke-width="0" fill="#000000">5</text>
  <text id="svg_90" stroke="#000000" transform="rotate(-111.96300506591797 132.58671569824216,245.70779418945307) matrix(0.6872963905334469,0,0,0.5818181633949279,305.76919949799776,-2.8181846439838267) " xml:space="preserve" text-anchor="middle" font-family="Monospace" font-size="24" y="435.08219" x="-252.11122" stroke-linecap="null" stroke-linejoin="null" stroke-dasharray="null" stroke-width="0" fill="#000000">6</text>
  <text id="svg_89" stroke="#000000" transform="rotate(-152.89389038085938 198.5311126708985,315.1628417968751) matrix(0.6872963905334469,0,0,0.5818181633949279,305.76919949799776,-2.8181846439838267) " xml:space="preserve" text-anchor="middle" font-family="Monospace" font-size="24" y="554.53532" x="-156.08479" stroke-linecap="null" stroke-linejoin="null" stroke-dasharray="null" stroke-width="0" fill="#000000">5</text>
  <path stroke="RGB(214,196,118)" stroke-width="25" stroke-miterlimit="10" fill="none" fill-rule="nonzero" id="path174" transform="rotate(-90 172.50000000000009,277.50000000000006) " d="m92.5,357.5a160,160 0 0 1 160,-160"/>
  <text stroke="#000000" transform="rotate(-81.79627227783203 257.8972473144532,157.57449340820315) matrix(0.25039108496739,0,0,0.285608945946354,241.52383193564336,63.41588482952602) " font-weight="bold" xml:space="preserve" text-anchor="middle" font-family="Monospace" font-size="24" id="svg_1" y="337.97117" x="64.77991" stroke-width="0" fill="#000000">1.1</text>
  <text id="svg_6" stroke="#000000" transform="rotate(4.0121684074401855 292.49081420898386,197.9105377197264) matrix(0.25039108496739,0,0,0.285608945946354,241.52383193564336,63.41588482952602) " font-weight="bold" xml:space="preserve" text-anchor="middle" font-family="Monospace" font-size="24" y="478.72529" x="203.60189" stroke-width="0" fill="#000000">1.6</text>
  <text id="svg_85" stroke="#000000" transform="rotate(25.083629608154297 301.9580383300781,78.0863342285156) matrix(0.6872963905334469,0,0,0.5818181633949279,254.2691994979978,-120.56818464398381) " xml:space="preserve" text-anchor="middle" font-family="Monospace" font-size="24" y="349.14062" x="69.45498" stroke-linecap="null" stroke-linejoin="null" stroke-dasharray="null" stroke-width="0" fill="#000000">1</text>
  <text id="svg_86" stroke="#000000" transform="rotate(73.33282470703125 373.4032897949219,148.76826477050778) matrix(0.6872963905334469,0,0,0.5818181633949279,305.76919949799776,-2.8181846439838267) " xml:space="preserve" text-anchor="middle" font-family="Monospace" font-size="24" y="268.35935" x="98.55444" stroke-linecap="null" stroke-linejoin="null" stroke-dasharray="null" stroke-width="0" fill="#000000">2</text>
  <path stroke="RGB(206,184,76)" stroke-width="25" stroke-miterlimit="10" fill="none" fill-rule="nonzero" id="path176" transform="rotate(-90 172.5,117.49999999999999) " d="m92.5,37.5a160,160 0 0 1 160,160"/>
  <text id="svg_8" stroke="#000000" transform="rotate(36.3028450012207 286.4062805175782,219.37649536132815) matrix(0.25039108496739,0,0,0.285608945946354,241.52383193564336,63.41588482952602) " font-weight="bold" xml:space="preserve" text-anchor="middle" font-family="Monospace" font-size="24" y="553.98862" x="179.64011" stroke-width="0" fill="#000000">2.2</text>
  <text id="svg_11" stroke="#000000" transform="rotate(82.53628540039062 258.34042358398443,236.77450561523432) matrix(0.25039108496739,0,0,0.285608945946354,241.52383193564336,63.41588482952602) " font-weight="bold" xml:space="preserve" text-anchor="middle" font-family="Monospace" font-size="24" y="615.27163" x="67.80816" stroke-width="0" fill="#000000">2.5</text>
  <text id="svg_13" stroke="#000000" transform="rotate(113.85684204101562 235.85861206054688,234.18833923339844) matrix(0.25039108496739,0,0,0.285608945946354,241.52383193564336,63.41588482952602) " font-weight="bold" xml:space="preserve" text-anchor="middle" font-family="Monospace" font-size="24" y="606.5184" x="-22.05127" stroke-width="0" fill="#000000">4.2</text>
  <text id="svg_14" stroke="#000000" transform="rotate(136.6146240234375 226.39682006835938,227.63468933105466) matrix(0.25039108496739,0,0,0.285608945946354,241.52383193564336,63.41588482952602) " font-weight="bold" xml:space="preserve" text-anchor="middle" font-family="Monospace" font-size="24" y="583.75221" x="-59.98363" stroke-width="0" fill="#000000">4.3</text>
  <text id="svg_15" stroke="#000000" transform="rotate(147.9011993408203 218.9202117919922,219.61499023437497) matrix(0.25039108496739,0,0,0.285608945946354,241.52383193564336,63.41588482952602) " font-weight="bold" xml:space="preserve" text-anchor="middle" font-family="Monospace" font-size="24" y="555.73986" x="-89.94092" stroke-width="0" fill="#000000">4.4</text>
  <text id="svg_19" stroke="#000000" transform="rotate(-146.9230499267578 218.5867919921875,176.11134338378906) matrix(0.25039108496739,0,0,0.285608945946354,241.52383193564336,63.41588482952602) " font-weight="bold" xml:space="preserve" text-anchor="middle" font-family="Monospace" font-size="24" y="403.4337" x="-91.9378" stroke-width="0" fill="#000000">4.8</text>
  <text id="svg_21" stroke="#000000" transform="rotate(-125.71598052978516 226.1328125,167.15888977050784) matrix(0.25039108496739,0,0,0.285608945946354,241.52383193564336,63.41588482952602) " font-weight="bold" xml:space="preserve" text-anchor="middle" font-family="Monospace" font-size="24" y="371.92208" x="-61.98465" stroke-width="0" fill="#000000">4.9</text>
  <text id="svg_22" stroke="#000000" transform="rotate(-113.07302856445312 235.64768981933597,161.1842498779297) matrix(0.25039108496739,0,0,0.285608945946354,241.52383193564336,63.41588482952602) " font-weight="bold" xml:space="preserve" text-anchor="middle" font-family="Monospace" font-size="24" y="350.91434" x="-24.044" stroke-width="0" fill="#000000">4.10</text>
  <text id="svg_23" stroke="#000000" transform="rotate(-92.21318817138672 246.66145324707037,157.7448272705078) matrix(0.25039108496739,0,0,0.285608945946354,241.52383193564336,63.41588482952602) " font-weight="bold" xml:space="preserve" text-anchor="middle" font-family="Monospace" font-size="24" y="338.65982" x="19.88727" stroke-width="0" fill="#000000">4.11</text>
  <text id="svg_24" stroke="#000000" transform="rotate(178.17759704589844 212.41522216796872,198.10765075683594) matrix(0.25039108496739,0,0,0.285608945946354,241.52383193564336,63.41588482952602) " font-weight="bold" xml:space="preserve" text-anchor="middle" font-family="Monospace" font-size="24" y="480.45558" x="-115.91232" stroke-width="0" fill="#000000">4.6</text>
  <text id="svg_25" stroke="#000000" transform="rotate(-165.20399475097656 213.54710388183594,186.5976715087891) matrix(0.25039108496739,0,0,0.285608945946354,241.52383193564336,63.41588482952602) " font-weight="bold" xml:space="preserve" text-anchor="middle" font-family="Monospace" font-size="24" y="440.19074" x="-111.91856" stroke-width="0" fill="#000000">4.7</text>
  <text id="svg_29" stroke="#000000" transform="rotate(-71.92948913574219 276.0060119628906,131.7523956298828) matrix(0.20654958276332938,0,0,0.22286715939472684,157.6184409683106,-123.02461646297466) " font-weight="bold" xml:space="preserve" text-anchor="middle" font-family="Monospace" font-size="24" y="1151.32389" x="573.15178" stroke-width="0" fill="#000000">1.2.3</text>
  <text id="svg_32" stroke="#000000" transform="rotate(-40.601112365722656 301.49676513671875,146.7501678466797) matrix(0.20654958276332938,0,0,0.22286715939472684,157.6184409683106,-123.02461646297466) " font-weight="bold" xml:space="preserve" text-anchor="middle" font-family="Monospace" font-size="24" y="1218.61726" x="696.59766" stroke-width="0" fill="#000000">1.2.6</text>
  <text id="svg_31" stroke="#000000" transform="rotate(-55.10799789428711 293.49853515625,140.7541809082031) matrix(0.20654958276332938,0,0,0.22286715939472684,157.6184409683106,-123.02461646297466) " font-weight="bold" xml:space="preserve" text-anchor="middle" font-family="Monospace" font-size="24" y="1191.70477" x="657.87616" stroke-width="0" fill="#000000">1.2.5</text>
  <text id="svg_33" stroke="#000000" transform="rotate(-36.662899017333984 306.9998168945312,154.2514038085938) matrix(0.20654958276332938,0,0,0.22286715939472684,157.6184409683106,-123.02461646297466) " font-weight="bold" xml:space="preserve" text-anchor="middle" font-family="Monospace" font-size="24" y="1252.27346" x="723.23547" stroke-width="0" fill="#000000">1.4.1</text>
  <text id="svg_34" stroke="#000000" transform="rotate(-31.274551391601562 312.81057739257807,162.24658203125) matrix(0.20654958276332938,0,0,0.22286715939472684,157.6184409683106,-123.02461646297466) " font-weight="bold" xml:space="preserve" text-anchor="middle" font-family="Monospace" font-size="24" y="1288.15138" x="751.37457" stroke-width="0" fill="#000000">1.4.2</text>
  <text id="svg_35" stroke="#000000" transform="rotate(-11.154415130615234 320.4053649902346,180.24566650390622) matrix(0.20654958276332938,0,0,0.22286715939472684,157.6184409683106,-123.02461646297466) " font-weight="bold" xml:space="preserve" text-anchor="middle" font-family="Monospace" font-size="24" y="1368.91506" x="788.14386" stroke-width="0" fill="#000000">1.4.4</text>
  <text id="svg_36" stroke="#000000" transform="rotate(-21.473276138305664 317.41040039062506,170.7485809326172) matrix(0.20654958276332938,0,0,0.22286715939472684,157.6184409683106,-123.02461646297466) " font-weight="bold" xml:space="preserve" text-anchor="middle" font-family="Monospace" font-size="24" y="1326.30082" x="773.63073" stroke-width="0" fill="#000000">1.4.3</text>
  <text id="svg_37" stroke="#000000" transform="rotate(6.1612019538879395 322.906311035157,199.74604797363259) matrix(0.20654958276332938,0,0,0.22286715939472684,157.6184409683106,-123.02461646297466) " font-weight="bold" xml:space="preserve" text-anchor="middle" font-family="Monospace" font-size="24" y="1456.41188" x="800.24756" stroke-width="0" fill="#000000">1.4.6</text>
  <text id="svg_38" stroke="#000000" transform="rotate(-6.078714847564697 322.4095153808598,189.74868774414048) matrix(0.20654958276332938,0,0,0.22286715939472684,157.6184409683106,-123.02461646297466) " font-weight="bold" xml:space="preserve" text-anchor="middle" font-family="Monospace" font-size="24" y="1411.55148" x="797.83696" stroke-width="0" fill="#000000">1.4.5</text>
  <text id="svg_40" stroke="#000000" transform="rotate(35.49769592285156 310.90652465820307,236.74420166015625) matrix(0.20654958276332938,0,0,0.22286715939472684,157.6184409683106,-123.02461646297466) " font-weight="bold" xml:space="preserve" text-anchor="middle" font-family="Monospace" font-size="24" y="1622.42931" x="742.15006" stroke-width="0" fill="#000000">1.7.4</text>
  <text id="svg_41" stroke="#000000" transform="rotate(24.340299606323242 315.90963745117176,227.74673461914062) matrix(0.20654958276332938,0,0,0.22286715939472684,157.6184409683106,-123.02461646297466) " font-weight="bold" xml:space="preserve" text-anchor="middle" font-family="Monospace" font-size="24" y="1582.05856" x="766.36855" stroke-width="0" fill="#000000">1.7.3</text>
  <text id="svg_42" stroke="#000000" transform="rotate(52.94205093383789 297.4091491699219,250.74612426757812) matrix(0.20654958276332938,0,0,0.22286715939472684,157.6184409683106,-123.02461646297466) " font-weight="bold" xml:space="preserve" text-anchor="middle" font-family="Monospace" font-size="24" y="1685.24775" x="676.79052" stroke-width="0" fill="#000000">1.7.6</text>
  <text id="svg_43" stroke="#000000" transform="rotate(44.581626892089844 304.90811157226557,244.2454071044922) matrix(0.20654958276332938,0,0,0.22286715939472684,157.6184409683106,-123.02461646297466) " font-weight="bold" xml:space="preserve" text-anchor="middle" font-family="Monospace" font-size="24" y="1656.09178" x="713.11154" stroke-width="0" fill="#000000">1.7.5</text>
  <text id="svg_44" stroke="#000000" transform="rotate(10.968727111816406 321.4996032714846,209.24974060058597) matrix(0.20654958276332938,0,0,0.22286715939472684,157.6184409683106,-123.02461646297466) " font-weight="bold" xml:space="preserve" text-anchor="middle" font-family="Monospace" font-size="24" y="1499.05337" x="793.42826" stroke-width="0" fill="#000000">1.7.1</text>
  <text id="svg_52" stroke="#000000" transform="rotate(56.57674789428711 289.5003356933595,257.25067138671875) matrix(0.20654958276332938,0,0,0.22286715939472684,157.6184409683106,-123.02461646297466) " font-weight="bold" xml:space="preserve" text-anchor="middle" font-family="Monospace" font-size="24" y="1714.433" x="638.50924" stroke-width="0" fill="#000000">1.7.7</text>
  <text id="svg_56" stroke="#000000" transform="rotate(148.2768096923828 194.46983337402344,236.81341552734378) matrix(0.20654958276332938,0,0,0.22286715939472684,157.6184409683106,-123.02461646297466) " font-weight="bold" xml:space="preserve" text-anchor="middle" font-family="Monospace" font-size="24" y="1622.44957" x="178.57314" stroke-width="0" fill="#000000">5.1.4</text>
  <text id="svg_57" stroke="#000000" transform="rotate(156.22128295898438 190.00210571289062,228.7445068359375) matrix(0.20654958276332938,0,0,0.22286715939472684,157.6184409683106,-123.02461646297466) " font-weight="bold" xml:space="preserve" text-anchor="middle" font-family="Monospace" font-size="24" y="1586.55348" x="156.77869" stroke-width="0" fill="#000000">5.1.5</text>
  <text id="svg_58" stroke="#000000" transform="rotate(116.55632019042969 224.49278259277344,261.7505798339843) matrix(0.20654958276332938,0,0,0.22286715939472684,157.6184409683106,-123.02461646297466) " font-weight="bold" xml:space="preserve" text-anchor="middle" font-family="Monospace" font-size="24" y="1734.62655" x="323.79617" stroke-width="0" fill="#000000">1.7.14</text>
  <text id="svg_59" stroke="#000000" transform="rotate(123.33638000488281 215.16921997070315,258.02099609375) matrix(0.20654958276332938,0,0,0.22286715939472684,157.6184409683106,-123.02461646297466) " font-weight="bold" xml:space="preserve" text-anchor="middle" font-family="Monospace" font-size="24" y="1716.67898" x="280.24445" stroke-width="0" fill="#000000">5.1.1</text>
  <text id="svg_65" stroke="#000000" transform="rotate(169.96719360351562 184.0775604248047,210.61593627929688) matrix(0.20654958276332938,0,0,0.22286715939472684,157.6184409683106,-123.02461646297466) " font-weight="bold" xml:space="preserve" text-anchor="middle" font-family="Monospace" font-size="24" y="1502.98095" x="125.53416" stroke-width="0" fill="#000000">5.2.2</text>
  <text id="svg_66" stroke="#000000" transform="rotate(-179.72146606445312 182.54962158203125,200.12579345703128) matrix(0.20654958276332938,0,0,0.22286715939472684,157.6184409683106,-123.02461646297466) " font-weight="bold" xml:space="preserve" text-anchor="middle" font-family="Monospace" font-size="24" y="1458.11993" x="120.69825" stroke-width="0" fill="#000000">5.2.3</text>
  <text id="svg_68" stroke="#000000" transform="rotate(-166.6924591064453 185.04454040527347,180.62576293945312) matrix(0.20654958276332938,0,0,0.22286715939472684,157.6184409683106,-123.02461646297466) " font-weight="bold" xml:space="preserve" text-anchor="middle" font-family="Monospace" font-size="24" y="1370.62072" x="132.79317" stroke-width="0" fill="#000000">5.2.5</text>
  <text id="svg_69" stroke="#000000" transform="rotate(160.832275390625 185.69909667968753,219.5820922851563) matrix(0.20654958276332938,0,0,0.22286715939472684,157.6184409683106,-123.02461646297466) " font-weight="bold" xml:space="preserve" text-anchor="middle" font-family="Monospace" font-size="24" y="1545.616" x="135.22261" stroke-width="0" fill="#000000">5.2.1</text>
  <text id="svg_70" stroke="#000000" transform="rotate(-149.2506866455078 191.08364868164062,162.9571533203125) matrix(0.20654958276332938,0,0,0.22286715939472684,157.6184409683106,-123.02461646297466) " font-weight="bold" xml:space="preserve" text-anchor="middle" font-family="Monospace" font-size="24" y="1291.3272" x="162.02923" stroke-width="0" fill="#000000">5.2.7</text>
  <text id="svg_71" stroke="#000000" transform="rotate(-141.917724609375 197.08612060546875,154.95767211914062) matrix(0.20654958276332938,0,0,0.22286715939472684,157.6184409683106,-123.02461646297466) " font-weight="bold" xml:space="preserve" text-anchor="middle" font-family="Monospace" font-size="24" y="1255.44014" x="191.08348" stroke-width="0" fill="#000000">5.2.8</text>
  <text id="svg_72" stroke="#000000" transform="rotate(-130.1084442138672 203.08262634277344,147.45252990722653) matrix(0.20654958276332938,0,0,0.22286715939472684,157.6184409683106,-123.02461646297466) " font-weight="bold" xml:space="preserve" text-anchor="middle" font-family="Monospace" font-size="24" y="1221.78493" x="220.13139" stroke-width="0" fill="#000000">5.2.9</text>
  <text id="svg_73" stroke="#000000" transform="rotate(-121.30510711669922 210.58056640624997,141.455322265625) matrix(0.20654958276332938,0,0,0.22286715939472684,157.6184409683106,-123.02461646297466) " font-weight="bold" xml:space="preserve" text-anchor="middle" font-family="Monospace" font-size="24" y="1194.86279" x="256.43438" stroke-width="0" fill="#000000">5.2.10</text>
  <text id="svg_74" stroke="#000000" transform="rotate(-155.69149780273438 187.58798217773438,171.9530487060547) matrix(0.20654958276332938,0,0,0.22286715939472684,157.6184409683106,-123.02461646297466) " font-weight="bold" xml:space="preserve" text-anchor="middle" font-family="Monospace" font-size="24" y="1331.71876" x="145.08969" stroke-width="0" fill="#000000">5.2.6</text>
  <text id="svg_78" stroke="#000000" transform="rotate(-116.58686828613281 220.0016326904297,136.25122070312503) matrix(0.20654958276332938,0,0,0.22286715939472684,157.6184409683106,-123.02461646297466) " font-weight="bold" xml:space="preserve" text-anchor="middle" font-family="Monospace" font-size="24" y="1171.50016" x="302.02663" stroke-width="0" fill="#000000">5.4.1</text>
  <text id="svg_87" stroke="#000000" transform="rotate(113.73905944824219 371.7929992675781,248.5923309326172) matrix(0.6872963905334469,0,0,0.5818181633949279,305.76919949799776,-2.8181846439838267) " xml:space="preserve" text-anchor="middle" font-family="Monospace" font-size="24" y="440.30356" x="96.32186" stroke-linecap="null" stroke-linejoin="null" stroke-dasharray="null" stroke-width="0" fill="#000000">3</text>
  <text id="svg_93" stroke="#000000" transform="rotate(-65.2988052368164 133.10598754882812,144.7974395751953) matrix(0.6872963905334469,0,0,0.5818181633949279,305.76919949799776,-2.8181846439838267) " xml:space="preserve" text-anchor="middle" font-family="Monospace" font-size="24" y="261.50201" x="-251.37387" stroke-linecap="null" stroke-linejoin="null" stroke-dasharray="null" stroke-width="0" fill="#000000">7</text>
  <text id="svg_94" stroke="#000000" transform="rotate(-22.436914443969727 201.5455322265625,77.83592987060541) matrix(0.6872963905334469,0,0,0.5818181633949279,305.76919949799776,-2.8181846439838267) " xml:space="preserve" text-anchor="middle" font-family="Monospace" font-size="24" y="146.33593" x="-151.70187" stroke-linecap="null" stroke-linejoin="null" stroke-dasharray="null" stroke-width="0" fill="#000000">8</text>
  <text id="svg_95" stroke="#000000" transform="rotate(45.56428909301758 363.4328308105468,80.81226348876953) matrix(0.6872963905334469,0,0,0.5818181633949279,254.2691994979978,-120.56818464398381) " xml:space="preserve" text-anchor="middle" font-family="Monospace" font-size="24" y="353.8674" x="158.93822" stroke-linecap="null" stroke-linejoin="null" stroke-dasharray="null" stroke-width="0" fill="#000000">1</text>
  <text id="svg_96" stroke="#000000" transform="rotate(133.61473083496094 369.4371032714843,306.69036865234375) matrix(0.6872963905334469,0,0,0.5818181633949279,305.76919949799776,-2.8181846439838267) " xml:space="preserve" text-anchor="middle" font-family="Monospace" font-size="24" y="539.93751" x="92.74219" stroke-linecap="null" stroke-linejoin="null" stroke-dasharray="null" stroke-width="0" fill="#000000">2</text>
  <text id="svg_98" stroke="#000000" transform="rotate(-45.55620574951172 145.0583190917969,78.81683349609375) matrix(0.6872963905334469,0,0,0.5818181633949279,305.76919949799776,-2.8181846439838267) " xml:space="preserve" text-anchor="middle" font-family="Monospace" font-size="24" y="148.05967" x="-233.9302" stroke-linecap="null" stroke-linejoin="null" stroke-dasharray="null" stroke-width="0" fill="#000000">4</text>
  <text id="svg_99" stroke="#000000" transform="rotate(-135.42750549316406 140.52529907226562,311.7638244628906) matrix(0.6872963905334469,0,0,0.5818181633949279,305.76919949799776,-2.8181846439838267) " xml:space="preserve" text-anchor="middle" font-family="Monospace" font-size="24" y="548.65704" x="-240.51871" stroke-linecap="null" stroke-linejoin="null" stroke-dasharray="null" stroke-width="0" fill="#000000">3</text>

</svg>